<svg width="49" height="49" viewBox="0 0 49 49" fill="none" xmlns="http://www.w3.org/2000/svg">
<circle cx="24.9167" cy="24.0833" r="23.0799" fill="#2E2000" stroke="#F2A900" stroke-width="2.00694"/>
<path d="M24.9249 12.549C28.6807 12.549 29.1255 12.5655 30.6025 12.6314C31.9753 12.6918 32.7166 12.9224 33.2107 13.1146C33.8642 13.3672 34.3364 13.6747 34.8251 14.1634C35.3193 14.6576 35.6213 15.1243 35.8739 15.7777C36.066 16.2719 36.2967 17.0187 36.3571 18.3859C36.423 19.8685 36.4394 20.3132 36.4394 24.0636C36.4394 27.8194 36.423 28.2642 36.3571 29.7412C36.2967 31.114 36.066 31.8552 35.8739 32.3494C35.6213 33.0028 35.3138 33.4751 34.8251 33.9638C34.3309 34.458 33.8642 34.76 33.2107 35.0125C32.7166 35.2047 31.9698 35.4353 30.6025 35.4957C29.12 35.5616 28.6752 35.5781 24.9249 35.5781C21.1691 35.5781 20.7243 35.5616 19.2472 35.4957C17.8745 35.4353 17.1332 35.2047 16.639 35.0125C15.9856 34.76 15.5134 34.4525 15.0247 33.9638C14.5305 33.4696 14.2285 33.0028 13.9759 32.3494C13.7837 31.8552 13.5531 31.1085 13.4927 29.7412C13.4268 28.2587 13.4104 27.8139 13.4104 24.0636C13.4104 20.3078 13.4268 19.863 13.4927 18.3859C13.5531 17.0132 13.7837 16.2719 13.9759 15.7777C14.2285 15.1243 14.536 14.6521 15.0247 14.1634C15.5189 13.6692 15.9856 13.3672 16.639 13.1146C17.1332 12.9224 17.88 12.6918 19.2472 12.6314C20.7243 12.5655 21.1691 12.549 24.9249 12.549ZM24.9249 10.0177C21.1087 10.0177 20.631 10.0342 19.1319 10.1001C17.6384 10.166 16.6116 10.4076 15.722 10.7535C14.7941 11.1159 14.0089 11.5936 13.2292 12.3788C12.4439 13.1585 11.9662 13.9437 11.6038 14.8662C11.2579 15.7612 11.0163 16.7826 10.9504 18.2761C10.8845 19.7806 10.868 20.2583 10.868 24.0745C10.868 27.8908 10.8845 28.3685 10.9504 29.8675C11.0163 31.361 11.2579 32.3879 11.6038 33.2774C11.9662 34.2054 12.4439 34.9906 13.2292 35.7703C14.0089 36.55 14.7941 37.0332 15.7166 37.3901C16.6116 37.736 17.6329 37.9777 19.1264 38.0435C20.6255 38.1094 21.1032 38.1259 24.9194 38.1259C28.7356 38.1259 29.2133 38.1094 30.7124 38.0435C32.2059 37.9777 33.2327 37.736 34.1222 37.3901C35.0447 37.0332 35.8299 36.55 36.6096 35.7703C37.3894 34.9906 37.8726 34.2054 38.2295 33.2829C38.5754 32.3879 38.817 31.3665 38.8829 29.873C38.9488 28.374 38.9653 27.8963 38.9653 24.08C38.9653 20.2638 38.9488 19.7861 38.8829 18.2871C38.817 16.7935 38.5754 15.7667 38.2295 14.8772C37.8835 13.9437 37.4058 13.1585 36.6206 12.3788C35.8409 11.5991 35.0557 11.1159 34.1332 10.759C33.2382 10.413 32.2169 10.1714 30.7233 10.1056C29.2188 10.0342 28.7411 10.0177 24.9249 10.0177Z" fill="white"/>
<path d="M24.9246 16.8542C20.9382 16.8542 17.704 20.0884 17.704 24.0749C17.704 28.0613 20.9382 31.2955 24.9246 31.2955C28.911 31.2955 32.1452 28.0613 32.1452 24.0749C32.1452 20.0884 28.911 16.8542 24.9246 16.8542ZM24.9246 28.7586C22.3383 28.7586 20.2408 26.6611 20.2408 24.0749C20.2408 21.4886 22.3383 19.3911 24.9246 19.3911C27.5108 19.3911 29.6084 21.4886 29.6084 24.0749C29.6084 26.6611 27.5108 28.7586 24.9246 28.7586Z" fill="white"/>
<path d="M34.1167 16.5683C34.1167 17.5018 33.3589 18.254 32.431 18.254C31.4975 18.254 30.7452 17.4963 30.7452 16.5683C30.7452 15.6348 31.503 14.8826 32.431 14.8826C33.3589 14.8826 34.1167 15.6403 34.1167 16.5683Z" fill="white"/>
</svg>
