<svg width="48" height="49" viewBox="0 0 48 49" fill="none" xmlns="http://www.w3.org/2000/svg">
<circle cx="24" cy="24.1666" r="23" fill="#2E2000" stroke="#F2A900" stroke-width="2"/>
<path d="M40.1812 17.3452C40.1812 17.3452 39.8687 14.9925 38.9062 13.9595C37.6875 12.5998 36.325 12.5932 35.7 12.5132C31.225 12.1666 24.5063 12.1666 24.5063 12.1666H24.4937C24.4937 12.1666 17.775 12.1666 13.3 12.5132C12.675 12.5932 11.3125 12.5998 10.0938 13.9595C9.13125 14.9925 8.825 17.3452 8.825 17.3452C8.825 17.3452 8.5 20.1111 8.5 22.8703V25.4563C8.5 28.2155 8.81875 30.9814 8.81875 30.9814C8.81875 30.9814 9.13125 33.3341 10.0875 34.3671C11.3063 35.7267 12.9063 35.6801 13.6188 35.8267C16.1813 36.0866 24.5 36.1666 24.5 36.1666C24.5 36.1666 31.225 36.1533 35.7 35.8134C36.325 35.7334 37.6875 35.7267 38.9062 34.3671C39.8687 33.3341 40.1812 30.9814 40.1812 30.9814C40.1812 30.9814 40.5 28.2222 40.5 25.4563V22.8703C40.5 20.1111 40.1812 17.3452 40.1812 17.3452ZM21.1938 28.5954V19.0047L29.8375 23.8167L21.1938 28.5954Z" fill="white"/>
</svg>
