<svg xmlns="http://www.w3.org/2000/svg" width="192" height="192" viewBox="0 0 192 192" version="1.1"><path d="M 0 96 L 0 192 8 192 L 16 192 16 187.926 C 16 182.842, 20.066 170.561, 24.584 162 C 31.726 148.466, 46.385 131.691, 57.346 124.509 C 60.331 122.553, 61.848 122.953, 59.798 125.155 C 59.084 125.921, 56.031 129.462, 53.014 133.024 C 49.997 136.586, 46.953 140.101, 46.249 140.837 C 45.545 141.572, 43.742 143.822, 42.241 145.837 C 40.740 147.851, 39.284 149.725, 39.006 150 C 37.621 151.369, 33.950 159.920, 33.425 163 L 32.829 166.500 35.414 162.148 C 36.836 159.754, 38 157.429, 38 156.981 C 38 156.533, 38.364 156.017, 38.808 155.833 C 39.253 155.650, 41.093 153.335, 42.898 150.689 C 48.715 142.161, 58 133.549, 58 136.681 C 58 137.055, 55.802 140.543, 53.117 144.431 C 45.195 155.898, 39.054 168.387, 40.584 169.917 C 40.856 170.190, 41.339 169.420, 41.656 168.206 C 41.974 166.993, 42.631 166, 43.117 166 C 43.602 166, 44 165.100, 44 164 C 44 162.900, 44.450 162, 45 162 C 45.550 162, 46 161.530, 46 160.955 C 46 159.018, 55.808 145.356, 58.434 143.636 C 60.889 142.026, 61.073 142.028, 61.698 143.655 C 62.074 144.634, 61.850 145.550, 61.180 145.773 C 60.531 145.990, 60 146.719, 60 147.395 C 60 148.070, 59.135 149.551, 58.077 150.686 C 55.658 153.284, 49.684 165.017, 50.411 165.744 C 50.709 166.042, 51.268 165.434, 51.654 164.393 C 52.039 163.352, 52.627 162.275, 52.961 162 C 53.295 161.725, 55.643 158.561, 58.178 154.969 C 62.735 148.513, 66.397 144.337, 70.815 140.556 C 73.064 138.631, 73.079 138.631, 72.380 140.556 C 71.992 141.625, 70.848 143.694, 69.837 145.154 C 68.827 146.614, 68 148.264, 68 148.821 C 68 149.378, 67.636 149.983, 67.192 150.167 C 64.992 151.074, 54 170.892, 54 173.951 C 54 174.543, 53.594 175.809, 53.097 176.764 C 52.601 177.719, 51.654 180.525, 50.993 183 C 50.332 185.475, 49.398 188.512, 48.917 189.750 L 48.043 192 94.021 192 C 144.219 192, 141.309 192.370, 138.882 186.297 C 136.518 180.380, 131.532 170.441, 130.295 169.179 C 129.583 168.452, 129 167.481, 129 167.020 C 129 164.177, 114.054 148.630, 67.937 103.500 C 56.697 92.500, 45.902 81.700, 43.950 79.500 C 25.929 59.195, 16.563 27.281, 21.572 3.250 L 22.250 0 11.125 0 L 0 0 0 96 M 55.503 7.971 C 54.406 20.357, 56.193 32.136, 60.621 41.711 C 64.568 50.244, 71.024 57.935, 89.291 75.866 C 143.322 128.904, 155.129 140.951, 159.990 148 C 161.318 149.925, 162.650 151.725, 162.952 152 C 164.688 153.584, 170.630 165.745, 172.390 171.316 C 175.155 180.070, 176.003 183.626, 176.247 187.500 L 176.500 191.500 184.250 191.792 L 192 192.084 192 96.042 L 192 0 181.577 0 L 171.154 0 171.683 7.250 C 172.842 23.136, 164.753 48.808, 155.092 59.903 C 153.942 61.225, 153 62.620, 153 63.004 C 153 64.329, 136.038 80.853, 134.021 81.493 C 132.910 81.846, 132 82.554, 132 83.067 C 132 83.580, 131.339 84, 130.531 84 C 128.780 84, 129.557 81.259, 131.949 79 C 141.306 70.160, 154.500 52.587, 156.778 45.929 C 158.674 40.387, 158.220 40.089, 155.365 45 C 150.018 54.199, 147.357 57.699, 139.587 65.750 C 131.474 74.156, 130 75.188, 130 72.460 C 130 71.110, 133.446 65.387, 135.094 64 C 137.114 62.299, 145.534 49.748, 147.637 45.302 C 150.598 39.044, 150.513 34.905, 147.543 40.689 C 142.161 51.167, 130.357 66, 127.400 66 C 126.630 66, 126 66.450, 126 67 C 126 68.442, 123.251 68.233, 122.714 66.750 C 122.356 65.761, 121.796 65.775, 120.033 66.819 C 118.808 67.545, 117.591 67.924, 117.329 67.662 C 116.678 67.012, 119.924 60.851, 121.898 58.989 C 124.795 56.257, 131.089 44.278, 133.810 36.318 C 136.546 28.313, 137.143 22.236, 136.368 10.250 L 135.705 0 95.957 0 L 56.208 0 55.503 7.971" stroke="none" fill="#f9a906" fill-rule="evenodd"/><path d="M 21.103 6.332 C 17.084 29.409, 26.632 59.987, 43.950 79.500 C 45.902 81.700, 56.697 92.500, 67.937 103.500 C 114.054 148.630, 129 164.177, 129 167.020 C 129 167.481, 129.577 168.452, 130.282 169.179 C 132.283 171.241, 137.494 181.995, 139.040 187.250 L 140.437 192 158.505 192 L 176.574 192 175.884 186.250 C 175.237 180.855, 174.517 177.767, 172.216 170.500 C 170.780 165.966, 164.488 153.401, 162.952 152 C 162.650 151.725, 161.318 149.925, 159.990 148 C 155.129 140.951, 143.322 128.904, 89.291 75.866 C 59.764 46.883, 55.587 39.180, 55.601 13.750 L 55.609 0 38.907 0 L 22.205 0 21.103 6.332 M 136.291 14.750 C 136.437 27.929, 136.207 30.173, 134.138 35.818 C 130.911 44.621, 124.732 56.316, 121.898 58.989 C 119.924 60.851, 116.678 67.012, 117.329 67.662 C 117.591 67.924, 118.808 67.545, 120.033 66.819 C 121.796 65.775, 122.356 65.761, 122.714 66.750 C 123.251 68.233, 126 68.442, 126 67 C 126 66.450, 126.630 66, 127.400 66 C 130.357 66, 142.161 51.167, 147.543 40.689 C 150.513 34.905, 150.598 39.044, 147.637 45.302 C 145.534 49.748, 137.114 62.299, 135.094 64 C 133.446 65.387, 130 71.110, 130 72.460 C 130 75.188, 131.474 74.156, 139.587 65.750 C 147.357 57.699, 150.018 54.199, 155.365 45 C 158.220 40.089, 158.674 40.387, 156.778 45.929 C 154.500 52.587, 141.306 70.160, 131.949 79 C 129.557 81.259, 128.780 84, 130.531 84 C 131.339 84, 132 83.580, 132 83.067 C 132 82.554, 132.910 81.846, 134.021 81.493 C 136.038 80.853, 153 64.329, 153 63.004 C 153 62.620, 153.942 61.225, 155.092 59.903 C 165.715 47.703, 174.302 17.759, 171.375 3.125 L 170.750 0 153.439 0 L 136.129 0 136.291 14.750 M 56.973 124.719 C 45.481 132.708, 31.625 148.657, 24.584 162 C 20.066 170.561, 16 182.842, 16 187.926 L 16 192 32.021 192 C 50.116 192, 48.369 192.829, 50.993 183 C 51.654 180.525, 52.601 177.719, 53.097 176.764 C 53.594 175.809, 54 174.543, 54 173.951 C 54 170.892, 64.992 151.074, 67.192 150.167 C 67.636 149.983, 68 149.378, 68 148.821 C 68 148.264, 68.827 146.614, 69.837 145.154 C 70.848 143.694, 71.992 141.625, 72.380 140.556 C 73.079 138.631, 73.064 138.631, 70.815 140.556 C 66.397 144.337, 62.735 148.513, 58.178 154.969 C 55.643 158.561, 53.295 161.725, 52.961 162 C 52.627 162.275, 52.039 163.352, 51.654 164.393 C 51.268 165.434, 50.709 166.042, 50.411 165.744 C 49.684 165.017, 55.658 153.284, 58.077 150.686 C 59.135 149.551, 60 148.070, 60 147.395 C 60 146.719, 60.531 145.990, 61.180 145.773 C 61.850 145.550, 62.074 144.634, 61.698 143.655 C 61.073 142.028, 60.889 142.026, 58.434 143.636 C 55.808 145.356, 46 159.018, 46 160.955 C 46 161.530, 45.550 162, 45 162 C 44.450 162, 44 162.900, 44 164 C 44 165.100, 43.602 166, 43.117 166 C 42.631 166, 41.974 166.993, 41.656 168.206 C 41.339 169.420, 40.856 170.190, 40.584 169.917 C 39.054 168.387, 45.195 155.898, 53.117 144.431 C 55.802 140.543, 58 137.055, 58 136.681 C 58 133.549, 48.715 142.161, 42.898 150.689 C 41.093 153.335, 39.253 155.650, 38.808 155.833 C 38.364 156.017, 38 156.533, 38 156.981 C 38 157.429, 36.836 159.754, 35.414 162.148 L 32.829 166.500 33.425 163 C 33.950 159.920, 37.621 151.369, 39.006 150 C 39.284 149.725, 40.740 147.851, 42.241 145.837 C 43.742 143.822, 45.545 141.572, 46.249 140.837 C 46.953 140.101, 49.997 136.586, 53.014 133.024 C 56.031 129.462, 59.063 125.943, 59.750 125.203 C 62.287 122.471, 60.622 122.181, 56.973 124.719" stroke="none" fill="#fbf3e3" fill-rule="evenodd"/></svg>