<svg width="62" height="63" viewBox="0 0 62 63" fill="none" xmlns="http://www.w3.org/2000/svg">
<path d="M20.7314 19.5022C20.7314 18.1854 21.7166 17.0978 22.9901 16.9382L23.3154 16.9182L41.5814 16.9182C42.8983 16.9182 43.9852 17.9038 44.1446 19.1776L44.1647 19.5015L44.1653 37.7682C44.1653 39.1949 43.0081 40.3521 41.5814 40.3521C40.2646 40.352 39.1776 39.3663 39.0181 38.0927L38.9981 37.7688L38.9974 25.7391L19.6611 45.0754C18.6522 46.084 17.0169 46.084 16.0081 45.0754C14.9994 44.0666 14.9988 42.4306 16.0074 41.4218L35.3431 22.0861L23.3147 22.0854C21.9979 22.0854 20.911 21.0996 20.7514 19.826L20.7314 19.5022Z" fill="#F2A900"/>
</svg>
