<svg width="62" height="62" viewBox="0 0 62 62" fill="none" xmlns="http://www.w3.org/2000/svg">
<path d="M31.7562 16.2572C32.6873 15.3261 34.1529 15.2538 35.1663 16.0414L35.4105 16.2572L48.3265 29.1732C49.2577 30.1045 49.3293 31.57 48.5413 32.5834L48.3265 32.8266L35.4105 45.7435C34.4016 46.7524 32.765 46.7524 31.7562 45.7435C30.8251 44.8123 30.7535 43.3467 31.5413 42.3334L31.7562 42.0902L40.262 33.5834H12.9163C11.4898 33.5832 10.3335 32.4269 10.3333 31.0004C10.3333 29.5738 11.4897 28.4166 12.9163 28.4164H40.261L31.7562 19.9105C30.8251 18.9794 30.7536 17.5138 31.5413 16.5004L31.7562 16.2572Z" fill="#F6F3ED"/>
</svg>
