<?xml version="1.0" encoding="UTF-8" standalone="no"?>
<svg
   width="235"
   height="68"
   viewBox="0 0 235 68"
   fill="none"
   version="1.1"
   id="svg4"
   sodipodi:docname="imd_ayto_default.svg"
   inkscape:version="1.4.2 (f4327f4, 2025-05-13)"
   xmlns:inkscape="http://www.inkscape.org/namespaces/inkscape"
   xmlns:sodipodi="http://sodipodi.sourceforge.net/DTD/sodipodi-0.dtd"
   xmlns="http://www.w3.org/2000/svg"
   xmlns:svg="http://www.w3.org/2000/svg">
  <defs
     id="defs4" />
  <sodipodi:namedview
     id="namedview4"
     pagecolor="#ffffff"
     bordercolor="#000000"
     borderopacity="0.25"
     inkscape:showpageshadow="2"
     inkscape:pageopacity="0.0"
     inkscape:pagecheckerboard="0"
     inkscape:deskcolor="#d1d1d1"
     inkscape:zoom="3.92"
     inkscape:cx="160.33163"
     inkscape:cy="34.056122"
     inkscape:window-width="1920"
     inkscape:window-height="1009"
     inkscape:window-x="-8"
     inkscape:window-y="-8"
     inkscape:window-maximized="1"
     inkscape:current-layer="svg4" />
  <rect
     width="105"
     height="68"
     fill="#f2a900"
     id="rect1"
     x="130"
     y="0" />
  <path
     fill-rule="evenodd"
     clip-rule="evenodd"
     d="m 204.0293,20.7787 c 0,0.8703 -0.1802,1.6251 -0.5235,2.2643 -0.3434,0.6426 -0.8228,1.139 -1.445,1.4926 -0.6222,0.3638 -1.3498,0.5338 -2.1896,0.544 -0.8329,-0.0102 -1.5673,-0.1802 -2.1895,-0.544 -0.6222,-0.3536 -1.1016,-0.85 -1.445,-1.4926 -0.3434,-0.6392 -0.5168,-1.394 -0.5236,-2.2643 0.017,-1.3226 0.4012,-2.363 1.1356,-3.128 0.748,-0.7649 1.751,-1.1559 3.0225,-1.1763 1.2614,0.0204 2.2678,0.4114 3.0124,1.1763 0.7446,0.765 1.1287,1.8054 1.1457,3.128 z m -1.8733,0 c 0,-0.8636 -0.2006,-1.5402 -0.6018,-2.0468 -0.391,-0.5066 -0.9554,-0.7752 -1.683,-0.7854 -0.7275,0.0102 -1.2919,0.2788 -1.6931,0.7854 -0.391,0.5066 -0.5916,1.1832 -0.5916,2.0468 0,0.8601 0.2006,1.5367 0.5916,2.0433 0.4012,0.51 0.9656,0.7752 1.6931,0.7854 0.7276,-0.0102 1.292,-0.2754 1.683,-0.7854 0.4012,-0.5066 0.6018,-1.1832 0.6018,-2.0433 z m -7.4492,0.0272 c -0.0102,0.8431 -0.2006,1.5877 -0.5746,2.2269 -0.3706,0.6426 -0.9078,1.139 -1.5844,1.5028 -0.68,0.3536 -1.4925,0.5338 -2.4207,0.544 -0.5066,0 -0.986,-0.0374 -1.4144,-0.1054 -0.442,-0.0748 -0.8704,-0.1632 -1.2818,-0.2652 v -7.9388 c 0.4386,-0.0748 0.8704,-0.1428 1.2818,-0.2006 0.4216,-0.0476 0.8976,-0.0748 1.4348,-0.085 1.4245,0.0102 2.5431,0.3808 3.3353,1.1185 0.8024,0.7344 1.207,1.8054 1.224,3.2028 z m -1.8734,0.0102 c -0.0102,-0.9486 -0.2686,-1.666 -0.7854,-2.1726 -0.5168,-0.5134 -1.2613,-0.765 -2.2269,-0.7718 h -0.612 v 5.6881 c 0.2856,0.0578 0.5916,0.0952 0.918,0.1156 0.5746,-0.0102 1.0608,-0.136 1.4619,-0.3944 0.4012,-0.2482 0.7072,-0.5814 0.918,-1.0132 0.2108,-0.4284 0.3264,-0.9078 0.3264,-1.4517 z m -14.6128,-0.0374 c -0.007,0.8703 -0.1802,1.6251 -0.5236,2.2643 -0.3468,0.6426 -0.8228,1.139 -1.445,1.4926 -0.6222,0.3638 -1.3565,0.5338 -2.1895,0.544 -0.8432,-0.0102 -1.5674,-0.1802 -2.1896,-0.544 -0.6222,-0.3536 -1.1015,-0.85 -1.4449,-1.4926 -0.3434,-0.6392 -0.5168,-1.394 -0.527,-2.2643 0.0204,-1.3226 0.3944,-2.363 1.139,-3.128 0.7479,-0.7649 1.7509,-1.1559 3.0225,-1.1763 1.2613,0.0204 2.2677,0.4114 3.0123,1.1763 0.7446,0.765 1.1288,1.8054 1.1458,3.128 z m -1.8734,0 c 0,-0.8636 -0.2006,-1.5402 -0.6018,-2.0468 -0.391,-0.5066 -0.9553,-0.7752 -1.6829,-0.7854 -0.7378,0.0102 -1.292,0.2788 -1.6932,0.7854 -0.391,0.5066 -0.5916,1.1832 -0.5916,2.0468 0,0.8601 0.2006,1.5367 0.5916,2.0433 0.4012,0.5168 0.9554,0.7752 1.6932,0.7854 0.7276,-0.0102 1.2919,-0.2686 1.6829,-0.7854 0.4012,-0.5066 0.6018,-1.1832 0.6018,-2.0433 z m -7.677,4.3009 h -0.8908 l -4.3213,-5.4127 v 5.4127 h -1.5877 V 17.6881 L 161,16.4744 h 2.2575 l 3.8148,4.923 v -4.923 h 1.5979 z"
     fill="#070500"
     id="path1" />
  <path
     fill-rule="evenodd"
     clip-rule="evenodd"
     d="m 186.3973,15.6311 c -0.0272,1.989 -1.3294,3.2435 -2.9069,4.2669 1.003,-0.8704 2.3323,-1.9889 2.3527,-3.4611 -0.238,1.4722 -1.5299,2.4581 -2.6383,3.2605 0.9554,-0.8806 2.2643,-2.0773 2.2371,-3.5189 -0.289,1.5402 -1.3395,2.4275 -2.5261,3.3353 0.986,-0.935 2.1351,-2.0739 2.0773,-3.5563 -0.0408,1.4348 -1.3021,2.5805 -2.3051,3.4135 0.9928,-0.9928 2.0161,-2.1045 1.9209,-3.6141 -0.0102,-0.7072 -0.2107,-1.2818 -0.5813,-1.7034 -0.3842,-0.4283 -0.8704,-0.6391 -1.4654,-0.6493 -0.7072,0.0102 -1.241,0.238 -1.615,0.6697 -0.374,0.4386 -0.5541,1.0132 -0.5541,1.7306 0,0.4114 0.068,0.8126 0.2005,1.1866 0.1326,0.3706 0.374,0.7344 0.7276,1.088 l 3.8827,3.8249 c 0.4386,0.4317 0.7922,0.9179 1.0608,1.4653 0.2584,0.544 0.4012,1.1356 0.4182,1.768 0.0204,1.2545 -0.323,2.2847 -1.02,3.1177 -0.7106,0.833 -1.7509,1.2614 -3.1381,1.3022 -0.7752,0 -1.4722,-0.1632 -2.0943,-0.4794 -0.6222,-0.306 -1.1186,-0.7752 -1.4994,-1.3974 -0.374,-0.6222 -0.5746,-1.394 -0.595,-2.3221 -0.017,-2.0196 1.2716,-3.3557 2.8797,-4.3995 -1.0709,0.9282 -2.1623,2.1215 -2.1827,3.6345 0.1462,-1.5028 1.3294,-2.6009 2.4785,-3.4339 -1.0437,0.9554 -2.1045,2.1895 -2.0739,3.7025 0.0952,-1.5028 1.2409,-2.6418 2.3595,-3.5121 -1.0234,0.9757 -2.0535,2.2303 -1.9991,3.7399 0.051,-1.5096 1.1593,-2.686 2.2473,-3.5937 -0.9724,0.9723 -2.0263,2.2745 -1.9107,3.7467 0.0272,0.8432 0.2482,1.5299 0.6867,2.0467 0.442,0.5168 1.0642,0.7854 1.8564,0.7922 0.6222,0 1.1492,-0.2108 1.5674,-0.6392 0.4215,-0.4318 0.6323,-1.071 0.6323,-1.9685 -0.0306,-0.5474 -0.1734,-1.054 -0.4385,-1.5232 -0.2686,-0.4658 -0.5474,-0.8602 -0.833,-1.1356 l -3.4917,-3.4339 c -0.4386,-0.4318 -0.7922,-0.9282 -1.0608,-1.4925 -0.2584,-0.5644 -0.4012,-1.2036 -0.4216,-1.9108 0,-1.1968 0.3468,-2.1521 1.0438,-2.8695 0.697,-0.7174 1.6455,-1.0914 2.8389,-1.1084 1.1594,0.017 2.0773,0.3332 2.7743,0.9758 0.697,0.629 1.071,1.5197 1.1084,2.6553 z"
     fill="#070500"
     id="path2" />
  <path
     fill-rule="evenodd"
     clip-rule="evenodd"
     d="m 211.5785,33.8816 -0.3385,0.8961 h -1.8517 v 5.625 h -1.0852 v -5.625 h -1.792 v -0.8961 z m -5.9435,6.5211 h -0.5576 l -3.8927,-4.5896 v 4.5896 h -0.9756 v -5.7943 l -0.6173,-0.7268 h 1.3938 l 3.6737,4.3706 v -4.3706 h 0.9757 z m -52.6361,0 h -1.344 l -0.7268,-1.9912 h -3.0564 l -0.6969,1.9912 H 146 L 148.9071,32.7069 148.5985,32 h 1.344 z m -2.4093,-2.937 -1.2046,-3.3053 -1.1748,3.3053 z m 31.8684,2.937 h -1.1848 l -0.6371,-1.5432 h -2.6582 l -0.677,1.5432 h -1.0354 l 2.6084,-5.8242 -0.3086,-0.6969 h 1.1747 z m -2.1306,-2.3197 -0.9856,-2.4093 -1.0653,2.4093 z m 37.9912,-0.9558 c -0.0199,1.0354 -0.3286,1.8518 -0.916,2.469 -0.5873,0.6073 -1.3738,0.916 -2.3595,0.9458 -0.9756,-0.0298 -1.7621,-0.3385 -2.3495,-0.9458 -0.5874,-0.6172 -0.896,-1.4336 -0.896,-2.469 0,-0.6471 0.1393,-1.2345 0.4181,-1.7622 0.2788,-0.5077 0.677,-0.896 1.1549,-1.1747 0.4978,-0.3087 1.0553,-0.448 1.6725,-0.448 0.6472,0 1.2047,0.1393 1.7124,0.448 0.4779,0.2787 0.8662,0.667 1.1449,1.1747 0.2788,0.5277 0.4182,1.1151 0.4182,1.7622 z m -1.1748,0 c 0,-0.7268 -0.1693,-1.3141 -0.5277,-1.792 -0.3982,-0.448 -0.896,-0.6969 -1.573,-0.6969 -0.6371,0 -1.1747,0.2489 -1.5332,0.6969 -0.3683,0.4779 -0.5674,1.0652 -0.5674,1.792 0,0.7566 0.1991,1.344 0.5674,1.792 0.3585,0.4779 0.8961,0.697 1.5332,0.7268 0.677,-0.0298 1.2047,-0.2489 1.573,-0.7268 0.3584,-0.448 0.5277,-1.0354 0.5277,-1.792 z m -18.229,2.3794 -0.3883,0.8961 h -3.813 v -6.5211 h 4.0122 l -0.2788,0.8662 h -2.6383 v 1.9314 h 2.4392 l -0.2788,0.8363 h -2.1604 v 1.9911 z m -6.1029,0.8961 h -1.0851 v -6.5211 h 1.0851 z m -3.0265,0 h -1.115 v -4.729 l -2.2102,3.3849 -2.0509,-3.3849 v 4.729 h -0.9757 v -5.9635 l -0.448,-0.5576 h 1.5631 l 2.1902,3.4149 2.1803,-3.4149 h 0.8662 z M 164,33.8816 v 4.0321 c 0,0.4779 -0.0796,0.9259 -0.2788,1.3142 -0.1991,0.3883 -0.4778,0.7267 -0.8661,0.9557 -0.3982,0.2191 -0.8662,0.3584 -1.4536,0.3584 -0.896,0 -1.573,-0.219 -2.021,-0.667 -0.4778,-0.448 -0.6969,-1.0951 -0.6969,-1.9314 v -4.062 h 1.0852 v 3.9724 c 0,0.5376 0.1394,0.9856 0.4281,1.3141 0.2788,0.3385 0.667,0.5078 1.2046,0.5078 0.4978,-0.0299 0.916,-0.1693 1.1748,-0.5078 0.2788,-0.3086 0.3883,-0.6969 0.3883,-1.2046 v -4.0819 z m -6.0232,0 -2.2899,3.833 v 2.6881 h -1.0951 V 37.635 l -2.1305,-3.7534 h 1.2345 l 1.5929,2.8573 1.6527,-2.8573 z m 19.1847,0 -0.3385,0.8961 h -1.8418 v 5.625 h -1.0951 v -5.625 h -1.7921 v -0.8961 z m -5.9336,6.5211 h -0.5675 l -3.8827,-4.5896 v 4.5896 h -0.9857 v -5.7943 l -0.6172,-0.7268 h 1.4037 l 3.6638,4.3706 v -4.3706 h 0.9856 z"
     fill="#070500"
     id="path3" />
  <path
     fill-rule="evenodd"
     clip-rule="evenodd"
     d="m 207.6991,50.5122 h -1.1748 l -0.6471,-1.5332 h -2.6582 l -0.6471,1.5332 h -1.0553 l 2.5984,-5.8241 -0.2787,-0.6969 h 1.1449 z m -2.1305,-2.3197 -0.9757,-2.4093 -1.0354,2.4093 z m -4.281,1.4237 -0.3385,0.896 h -3.3252 v -6.521 h 1.0852 v 5.625 z m -4.281,0 -0.3385,0.896 h -3.3351 v -6.521 h 1.0951 v 5.625 z m -5.4657,0.896 h -1.0851 v -6.521 h 1.0851 z m -1.8717,-6.521 -2.6581,6.4911 -0.9857,0.1493 -2.3794,-6.6404 h 1.2047 l 1.7621,5.2068 2.0509,-5.2068 z m -6.3318,5.625 -0.3883,0.896 h -3.813 v -6.521 h 4.0022 l -0.2788,0.8661 h -2.6283 v 1.9314 h 2.4392 l -0.2788,0.8463 h -2.1604 v 1.9812 z M 177.792,48.302 c 0,0.7268 -0.2489,1.2843 -0.7566,1.7323 -0.4978,0.4281 -1.1449,0.6471 -1.9314,0.6471 -0.3584,0 -0.7268,-0.0299 -1.0653,-0.1095 -0.3584,-0.0896 -0.667,-0.1692 -0.9458,-0.2788 l -0.1991,-1.4336 c 0.2788,0.229 0.6173,0.4281 0.9558,0.5675 0.3285,0.1593 0.7566,0.219 1.1747,0.2489 0.4182,-0.0299 0.7567,-0.1394 1.0354,-0.3684 0.3087,-0.219 0.448,-0.4978 0.4779,-0.896 -0.0299,-0.2489 -0.0896,-0.448 -0.229,-0.6173 -0.1394,-0.1592 -0.3086,-0.2986 -0.4779,-0.448 -0.1592,-0.1095 -0.3285,-0.1891 -0.448,-0.2489 l -0.7566,-0.4778 c -0.5575,-0.3286 -0.9458,-0.6671 -1.1947,-1.0354 -0.2588,-0.3584 -0.3683,-0.7567 -0.3683,-1.1449 0.0298,-0.7567 0.2787,-1.3441 0.7865,-1.7622 0.4977,-0.4182 1.1747,-0.6471 2.011,-0.677 0.3684,0.0299 0.7268,0.0896 1.0653,0.1991 0.3385,0.1095 0.5874,0.219 0.7566,0.3385 v 1.3142 c -0.219,-0.229 -0.4779,-0.4182 -0.7865,-0.5874 -0.3086,-0.1394 -0.6372,-0.229 -1.0354,-0.229 -0.4181,0 -0.7865,0.0896 -1.0852,0.3086 -0.3086,0.229 -0.4778,0.5376 -0.4778,0.9558 0,0.3385 0.1393,0.6172 0.3882,0.8064 0.229,0.229 0.5377,0.4281 0.8662,0.6173 l 0.7566,0.4778 c 0.229,0.1394 0.448,0.2788 0.677,0.4779 0.219,0.1991 0.4182,0.4181 0.5575,0.6969 0.1693,0.2589 0.2489,0.5675 0.2489,0.9259 z m -8.4225,1.3142 -0.3983,0.896 h -3.8031 v -6.521 h 4.0023 l -0.2788,0.8661 h -2.6283 v 1.9314 h 2.4292 l -0.2788,0.8463 h -2.1504 v 1.9812 z m -5.5752,-2.3496 c -0.0299,1.0354 -0.3385,1.8518 -0.9757,2.469 -0.6471,0.6073 -1.5432,0.9159 -2.7179,0.9458 -0.4182,-0.0299 -0.8164,-0.0498 -1.1549,-0.1095 -0.3584,-0.0597 -0.667,-0.1394 -0.9458,-0.229 v -6.2721 c 0.3086,-0.0498 0.6173,-0.1095 0.9458,-0.1394 0.3086,-0.0498 0.7069,-0.0498 1.1847,-0.0498 1.1748,0 2.0708,0.3087 2.708,0.8961 0.6172,0.6172 0.9259,1.4535 0.9558,2.4889 z m -1.145,0.0299 c 0,-0.8164 -0.2289,-1.4337 -0.7068,-1.9016 -0.4679,-0.448 -1.1748,-0.7068 -2.1206,-0.7068 h -0.7069 v 4.9878 c 0.1693,0.0299 0.3385,0.0796 0.4779,0.1095 0.1693,0.0299 0.3385,0.0597 0.5078,0.0597 0.5575,0 1.0354,-0.1095 1.3938,-0.3683 0.3982,-0.2191 0.677,-0.5576 0.8761,-0.9259 0.1891,-0.3883 0.2787,-0.8064 0.2787,-1.2544 z"
     fill="#070500"
     id="path4" />
  <rect
     width="130"
     height="68"
     fill="#ffffff"
     id="rect1-9"
     x="0.12244898"
     y="-0.20408164" />
  <path
     fill-rule="evenodd"
     clip-rule="evenodd"
     d="m 32.961449,16.335518 c -0.0939,6.8687 -4.5908,11.2012 -10.0387,14.7353 3.4637,-3.0058 8.0545,-6.8686 8.1249,-11.9526 -0.8219,5.084 -5.2835,8.4889 -9.1112,11.2599 3.2993,-3.041 7.8197,-7.1739 7.7258,-12.1522 -0.998,5.3188 -4.6261,8.3832 -8.7238,11.5181 3.405,-3.2288 7.3735,-7.1621 7.1739,-12.2813 -0.1409,4.9548 -4.4969,8.9116 -7.9605,11.7882 3.4284,-3.4284 6.9625,-7.2678 6.6338,-12.4809 -0.0353,-2.4422 -0.728,-4.4265 -2.0078,-5.8824 -1.3268,-1.4793896 -3.0058,-2.2073496 -5.0605,-2.2425696 -2.4421,0.03522 -4.2855,0.82189 -5.5771,2.3130696 -1.2915,1.5146 -1.9138,3.4988 -1.9138,5.9762 0,1.4207 0.2348,2.8062 0.6928,4.0977 0.4579,1.2798 1.2915,2.5361 2.5126,3.7572 l 13.4085,13.2089 c 1.5146,1.4912 2.7357,3.1702 3.6632,5.0605 0.8924,1.8786 1.3855,3.9216 1.4442,6.1054 0.0705,4.3326 -1.1154,7.8902 -3.5224,10.7668 -2.4539,2.8766 -6.0467,4.356 -10.8371,4.4968 -2.677,0 -5.084,-0.5635 -7.2326,-1.6555 -2.1487,-1.0567 -3.86289,-2.677 -5.17791,-4.8256 -1.29154,-2.1487 -1.98427,-4.8139 -2.05472,-8.0193 -0.0587,-6.9743 4.39123,-11.5886 9.94483,-15.1931 -3.6985,3.2053 -7.46742,7.3265 -7.53787,12.5513 0.50487,-5.1896 4.59087,-8.982 8.55937,-11.8586 -3.6046,3.2993 -7.26784,7.5613 -7.16216,12.7862 0.32875,-5.1896 4.28556,-9.1229 8.14846,-12.1287 -3.5342,3.3697 -7.09175,7.7023 -6.9039,12.9154 0.1761,-5.2131 4.0038,-9.2756 7.761,-12.4105 -3.358,3.358 -6.9978,7.8549 -6.5986,12.9388 0.0939,2.9118 0.8571,5.2836 2.3717,7.0682 1.5264,1.7847 3.675,2.7123 6.4107,2.7358 2.1487,0 3.9686,-0.728 5.4127,-2.2074 1.456,-1.4911 2.1839,-3.6985 2.1839,-6.7982 -0.1057,-1.8903 -0.5988,-3.6398 -1.5146,-5.2601 -0.9276,-1.6085 -1.8903,-2.9705 -2.8766,-3.9215 l -12.0583,-11.8587 c -1.51458,-1.4911 -2.73567,-3.2053 -3.66322,-5.1544 -0.89234,-1.949 -1.38547,-4.1564 -1.45592,-6.5986 0,-4.1329 1.19761,-7.4322 3.60456,-9.9095596 2.40698,-2.4774 5.68278,-3.76893 9.80398,-3.82764 4.0037,0.05871 7.1739,1.15064 9.5808,3.36974 2.407,2.17212 3.6985,5.2483596 3.8276,9.1698596 z"
     fill="#f2a900"
     id="path1-4" />
  <path
     d="m 62.014849,4.6875184 h -4.519 V 26.454518 h 4.519 z m 15.9698,17.1152996 -3.9625,-17.1152996 h -6.6185 V 26.454518 h 4.2382 v -14.7231 c 0,-0.4231 -0.005,-1.0162 -0.0147,-1.7791996 -0.01,-0.76301 -0.0147,-1.35145 -0.0147,-1.76479 l 4.0953,18.2671896 h 4.4204 l 4.125,-18.2671896 c 0,0.41334 -0.005,1.00179 -0.0147,1.76479 -0.01,0.7629996 -0.0147,1.3560996 -0.0147,1.7791996 v 14.7232 h 4.2381 V 4.6875184 h -6.5447 z M 102.49645,8.4679684 c 2.071,0 3.453,0.59306 4.149,1.7794496 0.695,1.1864 1.042,2.887 1.042,5.1023 0,1.6046 -0.231,2.988 -0.695,4.1494 -0.848,2.1168 -2.347,3.175 -4.496,3.175 H 98.295949 V 8.4679684 Z m 0.769,-3.78045 H 93.880349 V 26.454518 h 9.385101 c 3.291,0 5.724,-1.3534 7.301,-4.061 1.162,-2.0084 1.744,-4.4596 1.744,-7.354 0,-1.1421 -0.138,-2.3429 -0.414,-3.6034 -0.276,-1.2601 -0.793,-2.4315396 -1.552,-3.5145496 -0.946,-1.33879 -2.182,-2.25934 -3.71,-2.76138 -0.896,-0.29553 -2.019,-0.45279 -3.369,-0.47267 z"
     fill="#1d1d1b"
     id="path2-8" />
  <path
     d="m 58.672849,58.502518 c 0,-0.587 0.1227,-1.0318 0.3684,-1.3342 0.2457,-0.3022 0.566,-0.4534 0.9615,-0.4534 0.3546,0 0.6524,0.1417 0.8938,0.4252 0.241,0.2834 0.3617,0.72 0.3617,1.3099 0,0.5845 -0.1169,1.0326 -0.3508,1.3452 -0.2342,0.3125 -0.5326,0.4686 -0.8961,0.4686 -0.468,0 -0.8079,-0.1685 -1.0202,-0.5058 -0.2123,-0.337 -0.3183,-0.7555 -0.3183,-1.2555 z m 1.1815,-2.4722 c -0.6452,0 -1.1414,0.2494 -1.4888,0.7477 -0.3474,0.4986 -0.5211,1.0879 -0.5211,1.768 0,0.7266 0.1904,1.3088 0.5712,1.7463 0.3808,0.4375 0.8313,0.6562 1.3518,0.6562 0.3226,0 0.6086,-0.064 0.8586,-0.1919 0.25,-0.1279 0.4666,-0.3358 0.6498,-0.6236 v 0.6495 h 0.7063 v -6.4263 h -0.7544 v 2.3587 c -0.1771,-0.218 -0.3356,-0.3707 -0.4753,-0.4577 -0.2411,-0.1512 -0.5403,-0.2269 -0.8981,-0.2269 z m 5.7676,-0.0217 c -0.6567,0 -1.1887,0.234 -1.5957,0.702 -0.407,0.468 -0.6103,1.077 -0.6103,1.8267 0,0.7616 0.2019,1.3538 0.606,1.7766 0.4041,0.4231 0.8967,0.6346 1.4782,0.6346 0.2382,0 0.4519,-0.0234 0.6409,-0.0701 0.3514,-0.0812 0.6466,-0.2381 0.8848,-0.4706 0.1426,-0.1336 0.2711,-0.3059 0.386,-0.5167 0.1146,-0.2106 0.1823,-0.4018 0.2028,-0.5732 h -0.7717 c -0.0582,0.2062 -0.157,0.388 -0.2966,0.5449 -0.244,0.2702 -0.5712,0.4053 -0.9808,0.4053 -0.439,0 -0.763,-0.1432 -0.9724,-0.4294 -0.2091,-0.2861 -0.3212,-0.6663 -0.3356,-1.1401 h 3.4225 c 0,-0.4709 -0.0234,-0.8137 -0.0697,-1.0289 -0.0525,-0.3139 -0.157,-0.5887 -0.314,-0.824 -0.1627,-0.2471 -0.3998,-0.4482 -0.7106,-0.6038 -0.3111,-0.1555 -0.6322,-0.2333 -0.9638,-0.2333 z m -1.3428,2.0667 c 0.0147,-0.4012 0.1441,-0.7319 0.388,-0.992 0.2443,-0.2601 0.5464,-0.3903 0.907,-0.3903 0.5029,0 0.8618,0.189 1.077,0.5669 0.1161,0.2033 0.1901,0.4752 0.2224,0.8154 z m 8.9326,1.9661 v -4.9179 h 1.5389 c 0.7005,0 1.2083,0.2195 1.5237,0.6585 0.3154,0.4389 0.4733,1.055 0.4733,1.8486 0,0.2062 -0.0219,0.43 -0.0654,0.6714 -0.0758,0.4038 -0.1993,0.7353 -0.3707,0.994 -0.2152,0.3226 -0.4914,0.5406 -0.8284,0.6538 -0.189,0.0611 -0.4303,0.0916 -0.7238,0.0916 z m -0.8722,0.7411 h 2.5854 c 1.0988,0 1.8734,-0.4853 2.3238,-1.456 0.2558,-0.5493 0.3837,-1.1642 0.3837,-1.8443 0,-0.8808 -0.2163,-1.6029 -0.6495,-2.1668 -0.4854,-0.6248 -1.1686,-0.9373 -2.0491,-0.9373 h -2.5943 z m 8.7847,-4.7739 c -0.657,0 -1.1887,0.234 -1.5957,0.702 -0.407,0.468 -0.6103,1.077 -0.6103,1.8267 0,0.7616 0.2019,1.3538 0.606,1.7766 0.4038,0.4231 0.8967,0.6346 1.4779,0.6346 0.2385,0 0.4519,-0.0234 0.6409,-0.0701 0.3517,-0.0812 0.6469,-0.2381 0.8851,-0.4706 0.1423,-0.1336 0.2711,-0.3059 0.386,-0.5167 0.1146,-0.2106 0.1823,-0.4018 0.2028,-0.5732 h -0.772 c -0.0582,0.2062 -0.1569,0.388 -0.2964,0.5449 -0.2442,0.2702 -0.5711,0.4053 -0.981,0.4053 -0.439,0 -0.763,-0.1432 -0.9721,-0.4294 -0.2094,-0.2861 -0.3212,-0.6663 -0.3359,-1.1401 h 3.4227 c 0,-0.4709 -0.0233,-0.8137 -0.07,-1.0289 -0.0521,-0.3139 -0.1566,-0.5887 -0.3136,-0.824 -0.163,-0.2471 -0.3998,-0.4482 -0.7109,-0.6038 -0.3111,-0.1555 -0.6322,-0.2333 -0.9635,-0.2333 z m -1.3428,2.0667 c 0.0144,-0.4012 0.1438,-0.7319 0.388,-0.992 0.2443,-0.2601 0.5464,-0.3903 0.907,-0.3903 0.5027,0 0.8615,0.189 1.0767,0.5669 0.1164,0.2033 0.1904,0.4752 0.2224,0.8154 z m 6.8708,2.1798 c -0.5406,0 -0.9128,-0.2413 -1.1161,-0.7238 -0.1078,-0.2529 -0.1613,-0.5594 -0.1613,-0.92 0,-0.4473 0.0535,-0.8165 0.1613,-1.1072 0.2004,-0.5435 0.5726,-0.8154 1.1161,-0.8154 0.5406,0 0.9125,0.2572 1.1161,0.7716 0.1075,0.2676 0.1613,0.5873 0.1613,0.9592 0,0.6106 -0.1215,1.0689 -0.364,1.3757 -0.2429,0.3067 -0.5473,0.4599 -0.9134,0.4599 z m -2.0318,2.3893 h 0.7849 v -2.3849 c 0.1714,0.2122 0.3269,0.3617 0.4663,0.449 0.2382,0.1541 0.5335,0.231 0.8852,0.231 0.4476,0 0.8399,-0.1379 1.1772,-0.4142 0.5317,-0.4358 0.7978,-1.1625 0.7978,-2.1798 0,-0.7527 -0.1846,-1.3319 -0.5539,-1.7374 -0.369,-0.4056 -0.818,-0.6084 -1.3471,-0.6084 -0.3575,0 -0.6685,0.0873 -0.933,0.2619 -0.186,0.116 -0.3574,0.2805 -0.5144,0.4925 v -0.619 h -0.763 z m 7.4157,-2.3674 c -0.4738,0 -0.8197,-0.1659 -1.0377,-0.4971 -0.2181,-0.3312 -0.327,-0.7454 -0.327,-1.2426 0,-0.5173 0.1089,-0.9592 0.327,-1.3255 0.218,-0.3661 0.5668,-0.5493 1.0464,-0.5493 0.5406,0 0.9214,0.2151 1.1423,0.6455 0.1394,0.273 0.2091,0.6276 0.2091,1.0637 0,0.4824 -0.0965,0.9206 -0.2897,1.3146 -0.1933,0.3937 -0.5502,0.5907 -1.0704,0.5907 z m 0.0306,-4.2989 c -0.6714,0 -1.2063,0.2325 -1.6047,0.6976 -0.398,0.4649 -0.5971,1.09 -0.5971,1.8746 0,0.7324 0.1887,1.316 0.5666,1.7506 0.3779,0.4347 0.888,0.6518 1.5303,0.6518 0.7702,0 1.3385,-0.2456 1.7049,-0.7367 0.3661,-0.4914 0.5493,-1.1133 0.5493,-1.8662 0,-0.7789 -0.208,-1.369 -0.6236,-1.77 -0.4156,-0.4012 -0.9243,-0.6017 -1.5257,-0.6017 z m 3.6398,4.8044 h 0.785 v -2.6856 c 0,-0.3312 0.1059,-0.6242 0.3182,-0.8785 0.212,-0.2543 0.5159,-0.3814 0.9111,-0.3814 0.0464,0 0.0893,10e-4 0.1287,0.004 0.0392,0.003 0.0821,0.009 0.1285,0.0172 v -0.8283 c -0.0844,-0.009 -0.1437,-0.0144 -0.1786,-0.0173 -0.0351,-0.003 -0.0596,-0.004 -0.0743,-0.004 -0.3111,0 -0.5856,0.1127 -0.8241,0.3379 -0.2382,0.2253 -0.388,0.4162 -0.449,0.5732 v -0.8065 h -0.7455 z m 3.6443,-4.6693 h -0.632 v 0.6409 h 0.632 v 3.0912 c 0,0.2995 0.0654,0.5429 0.1964,0.7301 0.1308,0.1876 0.3791,0.2814 0.745201,0.2814 0.114,0 0.219,-0.006 0.316,-0.0175 0.098,-0.0115 0.191,-0.0306 0.282,-0.0568 v -0.6189 c -0.059,0.006 -0.11,0.009 -0.153,0.0109 -0.044,10e-4 -0.084,0.002 -0.122,0.002 -0.142,0 -0.244,-0.0158 -0.305,-0.0478 -0.111,-0.0553 -0.166,-0.1642 -0.166,-0.3269 v -3.0477 h 0.746 v -0.6409 h -0.746 v -1.3036 h -0.793601 z m 4.803601,-0.1046 c -0.656,0 -1.188,0.234 -1.595,0.702 -0.407,0.468 -0.611,1.077 -0.611,1.8267 0,0.7616 0.202,1.3538 0.606,1.7766 0.405,0.4231 0.897,0.6346 1.478,0.6346 0.239,0 0.452,-0.0234 0.642,-0.0701 0.351,-0.0812 0.646,-0.2381 0.884,-0.4706 0.143,-0.1336 0.271,-0.3059 0.386,-0.5167 0.115,-0.2106 0.183,-0.4018 0.203,-0.5732 h -0.772 c -0.058,0.2062 -0.157,0.388 -0.296,0.5449 -0.244,0.2702 -0.571,0.4053 -0.981,0.4053 -0.439,0 -0.763,-0.1432 -0.972,-0.4294 -0.21,-0.2861 -0.322,-0.6663 -0.336,-1.1401 h 3.422 c 0,-0.4709 -0.023,-0.8137 -0.069,-1.0289 -0.053,-0.3139 -0.157,-0.5887 -0.314,-0.824 -0.163,-0.2471 -0.4,-0.4482 -0.711,-0.6038 -0.311,-0.1555 -0.632,-0.2333 -0.964,-0.2333 z m -1.342,2.0667 c 0.014,-0.4012 0.144,-0.7319 0.388,-0.992 0.244,-0.2601 0.546,-0.3903 0.907,-0.3903 0.502,0 0.861,0.189 1.077,0.5669 0.116,0.2033 0.19,0.4752 0.222,0.8154 z m 4.612,1.2426 c 0.02,0.4649 0.175,0.8551 0.464,1.1706 0.289,0.3153 0.781,0.4729 1.476,0.4729 0.645,0 1.126,-0.1512 1.441,-0.4534 0.315,-0.3024 0.473,-0.6613 0.473,-1.0769 0,-0.4301 -0.152,-0.7454 -0.458,-0.9462 -0.191,-0.1276 -0.569,-0.2601 -1.133,-0.3967 l -0.519,-0.1264 c -0.227,-0.0553 -0.398,-0.1192 -0.514,-0.1918 -0.201,-0.1221 -0.301,-0.2849 -0.301,-0.4882 0,-0.1861 0.076,-0.3359 0.229,-0.4491 0.152,-0.1135 0.377,-0.1702 0.673,-0.1702 0.445,0 0.757,0.1034 0.938,0.3096 0.11,0.1455 0.172,0.3068 0.187,0.4839 h 0.741 c 0.006,-0.3021 -0.089,-0.5841 -0.283,-0.8456 -0.311,-0.4128 -0.819,-0.6193 -1.522,-0.6193 -0.538,0 -0.965,0.1368 -1.284,0.4098 -0.318,0.2734 -0.477,0.6308 -0.477,1.0727 0,0.3747 0.168,0.6685 0.506,0.8805 0.188,0.1222 0.482,0.2327 0.88,0.3315 l 0.624,0.157 c 0.334,0.0841 0.558,0.1584 0.671,0.2224 0.177,0.1045 0.266,0.2572 0.266,0.4577 0,0.2644 -0.11,0.46 -0.331,0.5864 -0.221,0.1265 -0.477,0.1895 -0.768,0.1895 -0.488,0 -0.831,-0.1264 -1.029,-0.3793 -0.107,-0.1394 -0.173,-0.3399 -0.196,-0.6014 z"
     fill="#1d1d1b"
     id="path3-8" />
  <path
     d="m 44.921749,50.067918 h 0.8762 v -6.4047 h -0.8762 z m 2.7156,0 h 0.7849 v -2.4459 c 0,-0.3054 0.0196,-0.5401 0.0588,-0.7043 0.0391,-0.1642 0.1241,-0.3232 0.2552,-0.4773 0.1627,-0.1918 0.3514,-0.3197 0.5665,-0.3836 0.1193,-0.0378 0.2719,-0.0568 0.458,-0.0568 0.3661,0 0.619,0.1455 0.7584,0.4361 0.0844,0.1743 0.1264,0.4038 0.1264,0.6887 v 2.9431 h 0.7979 v -2.9952 c 0,-0.471 -0.064,-0.833 -0.1918,-1.0856 -0.2325,-0.4623 -0.6801,-0.6933 -1.3429,-0.6933 -0.3021,0 -0.5769,0.0596 -0.824,0.1786 -0.2469,0.1192 -0.481,0.3154 -0.702,0.5887 v -0.6628 h -0.7454 z m 5.214,-1.4649 c 0.0202,0.4649 0.1751,0.8552 0.4643,1.1706 0.2892,0.3154 0.7812,0.4729 1.4759,0.4729 0.6452,0 1.1254,-0.1512 1.4407,-0.4533 0.3154,-0.3025 0.4733,-0.6614 0.4733,-1.077 0,-0.4301 -0.1527,-0.7454 -0.458,-0.9462 -0.1918,-0.1279 -0.5697,-0.2601 -1.1334,-0.3966 l -0.519,-0.1265 c -0.2267,-0.0553 -0.3981,-0.1192 -0.5145,-0.1918 -0.2004,-0.1221 -0.3007,-0.2849 -0.3007,-0.4882 0,-0.1861 0.0763,-0.3358 0.229,-0.4491 0.1524,-0.1135 0.377,-0.1702 0.6734,-0.1702 0.4448,0 0.7573,0.1034 0.9376,0.3097 0.1103,0.1454 0.1728,0.3067 0.1872,0.4839 h 0.7414 c 0.006,-0.3022 -0.0887,-0.5842 -0.2834,-0.8457 -0.3111,-0.4128 -0.8183,-0.6193 -1.5217,-0.6193 -0.5378,0 -0.9658,0.1368 -1.2841,0.4099 -0.3182,0.2733 -0.4772,0.6308 -0.4772,1.0726 0,0.375 0.1685,0.6685 0.5058,0.8805 0.1889,0.1222 0.4824,0.2328 0.8805,0.3316 l 0.6236,0.1569 c 0.3341,0.0841 0.5579,0.1584 0.6714,0.2224 0.1771,0.1046 0.2658,0.2572 0.2658,0.4577 0,0.2644 -0.1103,0.46 -0.3312,0.5864 -0.2209,0.1265 -0.4767,0.1896 -0.7673,0.1896 -0.4882,0 -0.8313,-0.1265 -1.0289,-0.3794 -0.1077,-0.1394 -0.1731,-0.3399 -0.1964,-0.6014 z m 5.445,-3.2047 h -0.6322 v 0.6409 h 0.6322 v 3.0912 c 0,0.2995 0.0654,0.5429 0.1962,0.7305 0.1307,0.1871 0.3793,0.2811 0.7454,0.2811 0.1135,0 0.2186,-0.006 0.3162,-0.0176 0.0974,-0.0115 0.191,-0.0305 0.2812,-0.0565 v -0.6192 c -0.0582,0.006 -0.1089,0.009 -0.1527,0.0109 -0.0435,10e-4 -0.0844,0.002 -0.1221,0.002 -0.1423,0 -0.244,-0.0161 -0.305,-0.0481 -0.1106,-0.0553 -0.1657,-0.1642 -0.1657,-0.3269 v -3.0477 h 0.7455 v -0.6409 h -0.7455 v -1.3036 h -0.7935 z m 2.8596,4.6696 h 0.7979 v -4.6477 h -0.7979 z m 0,-5.5152 h 0.7979 v -0.8895 h -0.7979 z m 2.6764,0.8456 h -0.6322 v 0.6409 h 0.6322 v 3.0912 c 0,0.2995 0.0654,0.5429 0.1962,0.7305 0.1307,0.1871 0.3793,0.2811 0.7454,0.2811 0.1135,0 0.2186,-0.006 0.3163,-0.0176 0.0973,-0.0115 0.1909,-0.0305 0.2811,-0.0565 v -0.6192 c -0.0582,0.006 -0.1089,0.009 -0.1527,0.0109 -0.0435,10e-4 -0.0844,0.002 -0.1221,0.002 -0.1423,0 -0.244,-0.0161 -0.305,-0.0481 -0.1106,-0.0553 -0.1656,-0.1642 -0.1656,-0.3269 v -3.0477 h 0.7454 v -0.6409 h -0.7454 v -1.3036 h -0.7936 z m 2.8421,0 v 3.1742 c 0,0.398 0.0653,0.7163 0.1961,0.9548 0.2414,0.4447 0.6947,0.6668 1.3604,0.6668 0.4272,0 0.7907,-0.1218 1.0899,-0.3661 0.1512,-0.1221 0.2777,-0.2716 0.3794,-0.449 l -0.009,0.6889 h 0.7411 v -4.6696 h -0.7849 v 2.2933 c 0,0.4563 -0.0538,0.8155 -0.1613,1.077 -0.1976,0.4882 -0.5697,0.7325 -1.1161,0.7325 -0.3808,0 -0.6409,-0.1397 -0.7803,-0.4185 -0.0757,-0.1512 -0.1135,-0.346 -0.1135,-0.5845 v -3.0998 z m 5.676,0 h -0.6323 v 0.6409 h 0.6323 v 3.0912 c 0,0.2995 0.0653,0.5429 0.1961,0.7305 0.1311,0.1871 0.3794,0.2811 0.7457,0.2811 0.1132,0 0.2187,-0.006 0.316,-0.0176 0.0974,-0.0115 0.1913,-0.0305 0.2814,-0.0565 v -0.6192 c -0.0582,0.006 -0.1091,0.009 -0.1526,0.0109 -0.0438,10e-4 -0.0844,0.002 -0.1222,0.002 -0.1425,0 -0.2442,-0.0161 -0.3053,-0.0481 -0.1103,-0.0553 -0.1656,-0.1642 -0.1656,-0.3269 v -3.0477 h 0.7457 v -0.6409 h -0.7457 v -1.3036 h -0.7935 z m 4.7125,4.1639 c -0.4738,0 -0.8195,-0.166 -1.0375,-0.4972 -0.2181,-0.3312 -0.3272,-0.7454 -0.3272,-1.2426 0,-0.5173 0.1091,-0.9591 0.3272,-1.3252 0.218,-0.3664 0.5666,-0.5496 1.0464,-0.5496 0.5404,0 0.9212,0.2152 1.1421,0.6455 0.1397,0.273 0.2094,0.6276 0.2094,1.0637 0,0.4825 -0.0968,0.9206 -0.2901,1.3146 -0.1932,0.3937 -0.5501,0.5908 -1.0703,0.5908 z m 0.0305,-4.299 c -0.6714,0 -1.2063,0.2325 -1.6043,0.6976 -0.3984,0.4649 -0.5974,1.09 -0.5974,1.8749 0,0.7322 0.1889,1.3157 0.5668,1.7503 0.3779,0.4347 0.888,0.6519 1.5304,0.6519 0.7702,0 1.3385,-0.2457 1.7046,-0.7368 0.3663,-0.4914 0.5495,-1.1133 0.5495,-1.8662 0,-0.7788 -0.2079,-1.369 -0.6236,-1.77 -0.4156,-0.4012 -0.9243,-0.6017 -1.526,-0.6017 z m 6.7176,4.8047 h 0.8283 v -3.7801 c 0,-0.1512 -0.004,-0.3874 -0.0109,-0.7086 -0.007,-0.3211 -0.0107,-0.5602 -0.0107,-0.7172 v -0.1961 l 1.8397,5.402 h 0.8589 l 1.8268,-5.402 c 0,0.3459 -0.003,0.6699 -0.009,0.9724 -0.006,0.3021 -0.009,0.5187 -0.009,0.6495 v 3.7801 h 0.824 v -6.4047 h -1.2296 l -1.8267,5.4148 -1.84,-5.4148 h -1.2425 z m 7.8734,-4.6696 v 3.1742 c 0,0.398 0.0654,0.7163 0.1961,0.9548 0.2414,0.4447 0.6948,0.6668 1.3604,0.6668 0.4275,0 0.7907,-0.1218 1.0899,-0.3661 0.1513,-0.1221 0.2777,-0.2716 0.3794,-0.449 l -0.009,0.6889 h 0.7412 v -4.6696 h -0.7847 v 2.2933 c 0,0.4563 -0.0538,0.8155 -0.1613,1.077 -0.1978,0.4882 -0.5697,0.7325 -1.1161,0.7325 -0.3811,0 -0.6412,-0.1397 -0.7806,-0.4185 -0.0754,-0.1512 -0.1135,-0.346 -0.1135,-0.5845 v -3.0998 z m 5.5193,4.6696 h 0.7846 v -2.4459 c 0,-0.3054 0.0196,-0.5401 0.059,-0.7043 0.0392,-0.1642 0.1242,-0.3232 0.255,-0.4773 0.1627,-0.1918 0.3516,-0.3197 0.5668,-0.3836 0.1193,-0.0378 0.2716,-0.0568 0.4577,-0.0568 0.3664,0 0.6193,0.1455 0.758701,0.4361 0.0839,0.1743 0.1269,0.4038 0.1269,0.6887 v 2.9431 h 0.797 v -2.9952 c 0,-0.471 -0.064,-0.833 -0.191,-1.0856 -0.233,-0.4623 -0.681,-0.6933 -1.343301,-0.6933 -0.3024,0 -0.5769,0.0596 -0.824,0.1786 -0.2472,0.1192 -0.4811,0.3154 -0.702,0.5887 v -0.6628 h -0.7454 z m 5.501701,0 h 0.798 v -4.6477 h -0.798 z m 0,-5.5152 h 0.798 v -0.8895 h -0.798 z m 4.32,0.7105 c -0.616,0 -1.123,0.2282 -1.522,0.6844 -0.398,0.4565 -0.597,1.0945 -0.597,1.914 0,0.6685 0.182,1.2259 0.545,1.672 0.363,0.4462 0.85,0.6694 1.46,0.6694 0.544,0 0.99,-0.1431 1.339,-0.4294 0.349,-0.2863 0.567,-0.7391 0.654,-1.3581 h -0.763 c -0.072,0.3459 -0.204,0.6184 -0.395,0.8174 -0.19,0.1991 -0.448,0.2987 -0.773,0.2987 -0.425,0 -0.736,-0.1598 -0.933,-0.4795 -0.198,-0.3198 -0.297,-0.7138 -0.297,-1.1816 0,-0.4651 0.07,-0.856 0.209,-1.1728 0.215,-0.4883 0.573,-0.7325 1.073,-0.7325 0.366,0 0.632,0.095 0.798,0.2854 0.165,0.1904 0.271,0.4295 0.318,0.7172 h 0.763 c -0.067,-0.6247 -0.265,-1.0651 -0.595,-1.3209 -0.33,-0.2558 -0.758,-0.3837 -1.284,-0.3837 z m 3.2,4.8047 h 0.798 v -4.6477 h -0.798 z m 0,-5.5152 h 0.798 v -0.8895 h -0.798 z m 4.49,4.9876 c -0.541,0 -0.913,-0.2414 -1.116,-0.7239 -0.108,-0.2529 -0.162,-0.5593 -0.162,-0.9199 0,-0.4474 0.054,-0.8166 0.162,-1.1072 0.2,-0.5436 0.572,-0.8155 1.116,-0.8155 0.54,0 0.912,0.2573 1.116,0.7717 0.107,0.2675 0.161,0.5873 0.161,0.9591 0,0.6106 -0.121,1.0689 -0.364,1.3757 -0.243,0.3067 -0.547,0.46 -0.913,0.46 z m -2.032,2.3892 h 0.785 v -2.3849 c 0.171,0.2123 0.327,0.3617 0.466,0.449 0.239,0.1541 0.534,0.231 0.885,0.231 0.448,0 0.84,-0.1379 1.178,-0.4142 0.531,-0.4358 0.798,-1.1625 0.798,-2.1798 0,-0.7526 -0.185,-1.3319 -0.554,-1.7374 -0.369,-0.4056 -0.818,-0.6081 -1.347,-0.6081 -0.358,0 -0.669,0.087 -0.933,0.2616 -0.187,0.1161 -0.358,0.2805 -0.515,0.4925 v -0.619 h -0.763 z m 6.164,-3.1042 c 0,-0.2995 0.121,-0.5175 0.362,-0.6541 0.143,-0.0812 0.356,-0.1408 0.641,-0.1788 l 0.476,-0.0608 c 0.145,-0.0176 0.293,-0.0467 0.444,-0.0873 0.151,-0.0406 0.275,-0.0916 0.371,-0.1527 v 0.6323 c 0,0.4824 -0.218,0.8298 -0.654,1.0421 -0.259,0.1279 -0.526,0.1918 -0.802,0.1918 -0.227,0 -0.423,-0.0656 -0.589,-0.1964 -0.166,-0.1308 -0.249,-0.3093 -0.249,-0.5361 z m 0.65,-1.43 c -0.439,0.055 -0.793,0.2019 -1.064,0.4404 -0.27,0.2382 -0.405,0.574 -0.405,1.0069 0,0.3955 0.137,0.7244 0.412,0.9877 0.275,0.263 0.628,0.3943 1.061,0.3943 0.361,0 0.691,-0.0769 0.99,-0.231 0.299,-0.1541 0.529,-0.3355 0.689,-0.5449 0.026,0.186 0.071,0.3298 0.135,0.4317 0.122,0.1919 0.318,0.2878 0.589,0.2878 0.11,0 0.197,-0.004 0.261,-0.0133 0.064,-0.009 0.157,-0.0305 0.279,-0.0653 v -0.5799 c -0.049,0.009 -0.096,0.0153 -0.139,0.0196 -0.044,0.004 -0.083,0.007 -0.118,0.007 -0.107,0 -0.178,-0.0248 -0.211,-0.0741 -0.034,-0.0495 -0.05,-0.1149 -0.05,-0.1964 v -2.69 c 0,-0.4418 -0.17,-0.7673 -0.511,-0.9767 -0.343,-0.2091 -0.789,-0.3137 -1.338,-0.3137 -0.474,0 -0.89,0.1127 -1.249,0.3379 -0.359,0.2252 -0.546,0.6256 -0.56,1.2011 h 0.732 c 0.029,-0.2414 0.092,-0.4228 0.187,-0.545 0.172,-0.2209 0.463,-0.3315 0.872,-0.3315 0.355,0 0.627,0.0605 0.818,0.1809 0.19,0.1207 0.286,0.3148 0.286,0.5821 0,0.1308 -0.018,0.231 -0.053,0.301 -0.061,0.1279 -0.181,0.2034 -0.362,0.2267 z m 4.272,2.6726 h 0.785 v -6.4047 h -0.785 z"
     fill="#1d1d1b"
     id="path4-2" />
</svg>
