<svg width="38" height="38" viewBox="0 0 38 38" fill="none" xmlns="http://www.w3.org/2000/svg">
<path d="M19.3333 28C21.6319 28 23.8363 27.0869 25.4616 25.4616C27.0869 23.8363 28 21.6319 28 19.3333C28 17.0348 27.0869 14.8304 25.4616 13.2051C23.8363 11.5798 21.6319 10.6667 19.3333 10.6667C17.0348 10.6667 14.8304 11.5798 13.2051 13.2051C11.5798 14.8304 10.6667 17.0348 10.6667 19.3333C10.6667 21.6319 11.5798 23.8363 13.2051 25.4616C14.8304 27.0869 17.0348 28 19.3333 28ZM19.3333 2C19.6206 2 19.8962 2.11414 20.0994 2.3173C20.3025 2.52047 20.4167 2.79602 20.4167 3.08333V7.41667C20.4167 7.70398 20.3025 7.97953 20.0994 8.1827C19.8962 8.38586 19.6206 8.5 19.3333 8.5C19.046 8.5 18.7705 8.38586 18.5673 8.1827C18.3641 7.97953 18.25 7.70398 18.25 7.41667V3.08333C18.25 2.79602 18.3641 2.52047 18.5673 2.3173C18.7705 2.11414 19.046 2 19.3333 2V2ZM19.3333 30.1667C19.6206 30.1667 19.8962 30.2808 20.0994 30.484C20.3025 30.6871 20.4167 30.9627 20.4167 31.25V35.5833C20.4167 35.8706 20.3025 36.1462 20.0994 36.3494C19.8962 36.5525 19.6206 36.6667 19.3333 36.6667C19.046 36.6667 18.7705 36.5525 18.5673 36.3494C18.3641 36.1462 18.25 35.8706 18.25 35.5833V31.25C18.25 30.9627 18.3641 30.6871 18.5673 30.484C18.7705 30.2808 19.046 30.1667 19.3333 30.1667ZM36.6667 19.3333C36.6667 19.6206 36.5525 19.8962 36.3494 20.0994C36.1462 20.3025 35.8706 20.4167 35.5833 20.4167H31.25C30.9627 20.4167 30.6871 20.3025 30.484 20.0994C30.2808 19.8962 30.1667 19.6206 30.1667 19.3333C30.1667 19.046 30.2808 18.7705 30.484 18.5673C30.6871 18.3641 30.9627 18.25 31.25 18.25H35.5833C35.8706 18.25 36.1462 18.3641 36.3494 18.5673C36.5525 18.7705 36.6667 19.046 36.6667 19.3333ZM8.5 19.3333C8.5 19.6206 8.38586 19.8962 8.1827 20.0994C7.97953 20.3025 7.70398 20.4167 7.41667 20.4167H3.08333C2.79602 20.4167 2.52047 20.3025 2.3173 20.0994C2.11414 19.8962 2 19.6206 2 19.3333C2 19.046 2.11414 18.7705 2.3173 18.5673C2.52047 18.3641 2.79602 18.25 3.08333 18.25H7.41667C7.70398 18.25 7.97953 18.3641 8.1827 18.5673C8.38586 18.7705 8.5 19.046 8.5 19.3333ZM31.5902 7.0765C31.7933 7.27965 31.9074 7.55516 31.9074 7.84242C31.9074 8.12968 31.7933 8.40518 31.5902 8.60833L28.5265 11.6742C28.4258 11.7747 28.3062 11.8545 28.1747 11.9089C28.0431 11.9633 27.9022 11.9912 27.7598 11.9911C27.4723 11.9909 27.1967 11.8765 26.9936 11.6731C26.893 11.5724 26.8132 11.4528 26.7589 11.3213C26.7045 11.1897 26.6765 11.0487 26.6766 10.9064C26.6768 10.6189 26.7912 10.3433 26.9947 10.1402L30.0583 7.0765C30.2615 6.87341 30.537 6.75931 30.8242 6.75931C31.1115 6.75931 31.387 6.87341 31.5902 7.0765ZM11.672 26.9947C11.8751 27.1978 11.9892 27.4733 11.9892 27.7606C11.9892 28.0478 11.8751 28.3233 11.672 28.5265L8.60833 31.5902C8.40401 31.7875 8.13036 31.8967 7.84631 31.8942C7.56227 31.8918 7.29056 31.7778 7.0897 31.577C6.88884 31.3761 6.7749 31.1044 6.77244 30.8203C6.76997 30.5363 6.87916 30.2626 7.0765 30.0583L10.1402 26.9947C10.3433 26.7916 10.6188 26.6775 10.9061 26.6775C11.1933 26.6775 11.4688 26.7916 11.672 26.9947ZM31.5902 31.5902C31.387 31.7933 31.1115 31.9074 30.8242 31.9074C30.537 31.9074 30.2615 31.7933 30.0583 31.5902L26.9947 28.5265C26.7973 28.3222 26.6881 28.0485 26.6906 27.7645C26.6931 27.4804 26.807 27.2087 27.0079 27.0079C27.2087 26.807 27.4804 26.6931 27.7645 26.6906C28.0485 26.6881 28.3222 26.7973 28.5265 26.9947L31.5902 30.0583C31.7933 30.2615 31.9074 30.537 31.9074 30.8242C31.9074 31.1115 31.7933 31.387 31.5902 31.5902ZM11.672 11.6742C11.4688 11.8773 11.1933 11.9914 10.9061 11.9914C10.6188 11.9914 10.3433 11.8773 10.1402 11.6742L7.0765 8.60833C6.97303 8.5084 6.8905 8.38886 6.83372 8.25669C6.77695 8.12452 6.74706 7.98236 6.74581 7.83852C6.74456 7.69467 6.77197 7.55202 6.82644 7.41888C6.88091 7.28575 6.96135 7.16479 7.06307 7.06307C7.16479 6.96135 7.28575 6.88091 7.41888 6.82644C7.55202 6.77197 7.69467 6.74456 7.83852 6.74581C7.98236 6.74706 8.12452 6.77695 8.25669 6.83372C8.38886 6.8905 8.5084 6.97303 8.60833 7.0765L11.672 10.1402C11.7729 10.2408 11.8529 10.3603 11.9075 10.492C11.9622 10.6236 11.9903 10.7647 11.9903 10.9072C11.9903 11.0497 11.9622 11.1908 11.9075 11.3224C11.8529 11.454 11.7729 11.5735 11.672 11.6742Z" fill="#2E2000"/>
</svg>
